<?xml version="1.0" encoding="UTF-8"?>
<!DOCTYPE svg PUBLIC "-//W3C//DTD SVG 1.1//EN" "http://www.w3.org/Graphics/SVG/1.1/DTD/svg11.dtd">
<svg xmlns="http://www.w3.org/2000/svg" version="1.1" width="3527px" height="1193px" style="shape-rendering:geometricPrecision; text-rendering:geometricPrecision; image-rendering:optimizeQuality; fill-rule:evenodd; clip-rule:evenodd" xmlns:xlink="http://www.w3.org/1999/xlink">
<g><path style="opacity:1" fill="#fefefe" d="M -0.5,-0.5 C 1175.17,-0.5 2350.83,-0.5 3526.5,-0.5C 3526.5,397.167 3526.5,794.833 3526.5,1192.5C 2350.83,1192.5 1175.17,1192.5 -0.5,1192.5C -0.5,794.833 -0.5,397.167 -0.5,-0.5 Z"/></g>
<g><path style="opacity:1" fill="#106fc4" d="M 2809.5,254.5 C 2819.34,253.511 2824.17,257.844 2824,267.5C 2821.45,274.358 2816.62,276.858 2809.5,275C 2803.89,271.723 2802.06,266.89 2804,260.5C 2805.36,257.977 2807.19,255.977 2809.5,254.5 Z"/></g>
<g><path style="opacity:1" fill="#b3b3b3" d="M 383.5,318.5 C 340.5,318.5 297.5,318.5 254.5,318.5C 254.5,454.167 254.5,589.833 254.5,725.5C 270.167,725.5 285.833,725.5 301.5,725.5C 285.675,726.496 269.675,726.83 253.5,726.5C 253.5,590.167 253.5,453.833 253.5,317.5C 297.003,317.168 340.337,317.501 383.5,318.5 Z"/></g>
<g><path style="opacity:1" fill="#404040" d="M 383.5,318.5 C 432.191,317.088 469.358,336.755 495,377.5C 506.879,400.104 511.212,424.104 508,449.5C 504.856,503.649 477.689,539.482 426.5,557C 409.83,561.688 392.83,563.855 375.5,563.5C 350.833,563.5 326.167,563.5 301.5,563.5C 301.5,617.5 301.5,671.5 301.5,725.5C 285.833,725.5 270.167,725.5 254.5,725.5C 254.5,589.833 254.5,454.167 254.5,318.5C 297.5,318.5 340.5,318.5 383.5,318.5 Z"/></g>
<g><path style="opacity:1" fill="#404040" d="M 573.5,318.5 C 589.167,318.5 604.833,318.5 620.5,318.5C 620.5,454.167 620.5,589.833 620.5,725.5C 604.833,725.5 589.167,725.5 573.5,725.5C 573.5,589.833 573.5,454.167 573.5,318.5 Z"/></g>
<g><path style="opacity:1" fill="#868686" d="M 573.5,318.5 C 589.325,317.504 605.325,317.17 621.5,317.5C 621.5,453.833 621.5,590.167 621.5,726.5C 605.325,726.83 589.325,726.496 573.5,725.5C 589.167,725.5 604.833,725.5 620.5,725.5C 620.5,589.833 620.5,454.167 620.5,318.5C 604.833,318.5 589.167,318.5 573.5,318.5 Z"/></g>
<g><path style="opacity:1" fill="#b9b9b9" d="M 797.5,318.5 C 781.833,318.5 766.167,318.5 750.5,318.5C 750.5,454.167 750.5,589.833 750.5,725.5C 766.167,725.5 781.833,725.5 797.5,725.5C 781.675,726.496 765.675,726.83 749.5,726.5C 749.5,590.167 749.5,453.833 749.5,317.5C 765.675,317.17 781.675,317.504 797.5,318.5 Z"/></g>
<g><path style="opacity:1" fill="#404040" d="M 797.5,318.5 C 797.5,375.167 797.5,431.833 797.5,488.5C 854.833,488.5 912.167,488.5 969.5,488.5C 970.499,432.002 970.832,375.336 970.5,318.5C 986.5,318.5 1002.5,318.5 1018.5,318.5C 1018.5,454.167 1018.5,589.833 1018.5,725.5C 1002.17,725.5 985.833,725.5 969.5,725.5C 969.5,659.833 969.5,594.167 969.5,528.5C 912.167,528.5 854.833,528.5 797.5,528.5C 797.5,594.167 797.5,659.833 797.5,725.5C 781.833,725.5 766.167,725.5 750.5,725.5C 750.5,589.833 750.5,454.167 750.5,318.5C 766.167,318.5 781.833,318.5 797.5,318.5 Z"/></g>
<g><path style="opacity:1" fill="#7a7a7a" d="M 1365.5,318.5 C 1291.5,318.5 1217.5,318.5 1143.5,318.5C 1143.5,454.167 1143.5,589.833 1143.5,725.5C 1219.5,725.5 1295.5,725.5 1371.5,725.5C 1295.34,726.499 1219,726.833 1142.5,726.5C 1142.5,590.167 1142.5,453.833 1142.5,317.5C 1217,317.167 1291.34,317.501 1365.5,318.5 Z"/></g>
<g><path style="opacity:1" fill="#404040" d="M 1365.5,318.5 C 1363.07,331.766 1361.07,345.099 1359.5,358.5C 1303.83,358.5 1248.17,358.5 1192.5,358.5C 1191.5,402.997 1191.17,447.664 1191.5,492.5C 1238.17,492.5 1284.83,492.5 1331.5,492.5C 1331.5,506.5 1331.5,520.5 1331.5,534.5C 1285.17,534.5 1238.83,534.5 1192.5,534.5C 1192.5,584.167 1192.5,633.833 1192.5,683.5C 1252.17,683.5 1311.83,683.5 1371.5,683.5C 1371.5,697.5 1371.5,711.5 1371.5,725.5C 1295.5,725.5 1219.5,725.5 1143.5,725.5C 1143.5,589.833 1143.5,454.167 1143.5,318.5C 1217.5,318.5 1291.5,318.5 1365.5,318.5 Z"/></g>
<g><path style="opacity:1" fill="#e0e0e0" d="M 1579.5,318.5 C 1542.17,318.5 1504.83,318.5 1467.5,318.5C 1467.5,454.167 1467.5,589.833 1467.5,725.5C 1466.5,589.668 1466.17,453.668 1466.5,317.5C 1504.34,317.168 1542,317.502 1579.5,318.5 Z"/></g>
<g><path style="opacity:1" fill="#404040" d="M 1579.5,318.5 C 1605.16,318.337 1629.5,323.837 1652.5,335C 1693.55,361.62 1711.05,399.454 1705,448.5C 1693.38,510.433 1655.88,541.6 1592.5,542C 1606.75,554.919 1619.59,569.086 1631,584.5C 1663.11,630.775 1694.61,677.441 1725.5,724.5C 1705.67,725.497 1685.67,725.83 1665.5,725.5C 1633.65,666.177 1596.49,610.511 1554,558.5C 1546.22,549.362 1536.39,544.029 1524.5,542.5C 1521.71,541.523 1518.71,541.19 1515.5,541.5C 1515.5,602.833 1515.5,664.167 1515.5,725.5C 1499.5,725.5 1483.5,725.5 1467.5,725.5C 1467.5,589.833 1467.5,454.167 1467.5,318.5C 1504.83,318.5 1542.17,318.5 1579.5,318.5 Z"/></g>
<g><path style="opacity:1" fill="#727272" d="M 1018.5,318.5 C 1002.5,318.5 986.5,318.5 970.5,318.5C 970.832,375.336 970.499,432.002 969.5,488.5C 969.5,431.5 969.5,374.5 969.5,317.5C 986.009,317.17 1002.34,317.504 1018.5,318.5 Z"/></g>
<g><path style="opacity:1" fill="#1570c2" d="M 2427.5,330.5 C 2427.72,331.675 2427.39,332.675 2426.5,333.5C 2425.02,331.926 2423.35,330.593 2421.5,329.5C 2422.59,328.391 2422.59,327.391 2421.5,326.5C 2419.03,327.97 2417.2,329.97 2416,332.5C 2415.75,331.376 2415.25,330.376 2414.5,329.5C 2414.17,329.833 2413.83,330.167 2413.5,330.5C 2414.31,332.071 2414.64,333.738 2414.5,335.5C 2400.77,329.625 2387.43,330.292 2374.5,337.5C 2374.5,336.5 2374.5,335.5 2374.5,334.5C 2378.73,333.281 2383.07,332.114 2387.5,331C 2396.23,330.875 2404.57,329.875 2412.5,328C 2403.87,326.039 2394.87,324.206 2385.5,322.5C 2384.5,322.833 2383.5,323.167 2382.5,323.5C 2383.59,324.609 2383.59,325.609 2382.5,326.5C 2380.49,324.829 2378.16,324.162 2375.5,324.5C 2379.78,322.196 2384.45,320.696 2389.5,320C 2401.6,317.895 2412.93,319.895 2423.5,326C 2425.04,327.371 2426.37,328.871 2427.5,330.5 Z"/></g>
<g><path style="opacity:1" fill="#0f6ec5" d="M 2155.5,319.5 C 2185.93,316.116 2203.43,329.45 2208,359.5C 2208.16,370.564 2207.32,381.564 2205.5,392.5C 2175.16,392.167 2144.83,392.5 2114.5,393.5C 2110.64,408.433 2112.14,422.767 2119,436.5C 2128.32,446.711 2139.82,450.211 2153.5,447C 2165.57,444.883 2176.07,439.716 2185,431.5C 2188.45,433.95 2191.62,436.783 2194.5,440C 2184.02,450.574 2171.35,456.907 2156.5,459C 2119.76,464.074 2100.43,448.241 2098.5,411.5C 2098.65,387.242 2105.15,364.909 2118,344.5C 2127.47,331.523 2139.97,323.189 2155.5,319.5 Z"/></g>
<g><path style="opacity:1" fill="#fcfefd" d="M 2192.5,381.5 C 2166.81,382.157 2141.48,381.491 2116.5,379.5C 2119.73,368.376 2124.56,358.043 2131,348.5C 2144.86,331.826 2161.69,327.66 2181.5,336C 2190.62,342.995 2194.95,352.329 2194.5,364C 2194.44,370.047 2193.77,375.881 2192.5,381.5 Z"/></g>
<g><path style="opacity:1" fill="#c2c2c2" d="M 367.5,359.5 C 345.833,359.5 324.167,359.5 302.5,359.5C 302.5,414.167 302.5,468.833 302.5,523.5C 301.501,468.669 301.168,413.669 301.5,358.5C 323.673,358.169 345.673,358.503 367.5,359.5 Z"/></g>
<g><path style="opacity:1" fill="#fefefe" d="M 367.5,359.5 C 431.18,361.349 460.013,394.016 454,457.5C 450.257,486.561 435.09,507.061 408.5,519C 401.009,521.304 393.342,522.637 385.5,523C 357.835,523.5 330.169,523.667 302.5,523.5C 302.5,468.833 302.5,414.167 302.5,359.5C 324.167,359.5 345.833,359.5 367.5,359.5 Z"/></g>
<g><path style="opacity:1" fill="#bdbdbd" d="M 1575.5,359.5 C 1556.17,359.5 1536.83,359.5 1517.5,359.5C 1517.5,409.833 1517.5,460.167 1517.5,510.5C 1536.83,510.5 1556.17,510.5 1575.5,510.5C 1556.01,511.497 1536.34,511.83 1516.5,511.5C 1516.5,460.5 1516.5,409.5 1516.5,358.5C 1536.34,358.17 1556.01,358.503 1575.5,359.5 Z"/></g>
<g><path style="opacity:1" fill="#fefefe" d="M 1575.5,359.5 C 1594.67,359.726 1612.34,364.893 1628.5,375C 1650.06,393.663 1658.56,417.163 1654,445.5C 1650.41,480.755 1631.24,501.588 1596.5,508C 1589.57,509.489 1582.57,510.322 1575.5,510.5C 1556.17,510.5 1536.83,510.5 1517.5,510.5C 1517.5,460.167 1517.5,409.833 1517.5,359.5C 1536.83,359.5 1556.17,359.5 1575.5,359.5 Z"/></g>
<g><path style="opacity:1" fill="#2a74bb" d="M 3029.5,335.5 C 3033.22,338.943 3035.39,343.277 3036,348.5C 3037.04,360.52 3035.87,372.187 3032.5,383.5C 3034.18,371.246 3034.84,358.912 3034.5,346.5C 3033.45,346.649 3032.45,346.483 3031.5,346C 3032.41,344.301 3032.74,342.467 3032.5,340.5C 3031.13,340.657 3029.79,340.49 3028.5,340C 3029.38,338.644 3029.71,337.144 3029.5,335.5 Z"/></g>
<g><path style="opacity:1" fill="#0e6fc5" d="M 3029.5,335.5 C 3029.71,337.144 3029.38,338.644 3028.5,340C 3029.79,340.49 3031.13,340.657 3032.5,340.5C 3032.74,342.467 3032.41,344.301 3031.5,346C 3032.45,346.483 3033.45,346.649 3034.5,346.5C 3034.84,358.912 3034.18,371.246 3032.5,383.5C 3028.1,407.889 3023.27,432.222 3018,456.5C 3013.82,458.399 3009.32,459.065 3004.5,458.5C 3007.73,437.343 3011.73,416.343 3016.5,395.5C 3017.12,395.389 3017.62,395.056 3018,394.5C 3019.5,387.521 3021,380.521 3022.5,373.5C 3023.6,366.002 3023.6,358.669 3022.5,351.5C 3017.96,337.606 3008.12,330.94 2993,331.5C 2968.12,334.712 2953.12,348.712 2948,373.5C 2942.5,401.57 2937,429.57 2931.5,457.5C 2927.17,457.5 2922.83,457.5 2918.5,457.5C 2918.5,456.5 2918.5,455.5 2918.5,454.5C 2926.74,410.41 2935.4,366.41 2944.5,322.5C 2949.17,321.167 2953.83,321.167 2958.5,322.5C 2957.29,326.773 2956.79,331.107 2957,335.5C 2975.5,318.334 2996.34,314.834 3019.5,325C 3023.73,327.732 3027.07,331.232 3029.5,335.5 Z"/></g>
<g><path style="opacity:1" fill="#116fc4" d="M 2427.5,330.5 C 2435.64,337.559 2439.3,346.559 2438.5,357.5C 2438.4,363.534 2437.9,369.534 2437,375.5C 2431.75,401.15 2426.59,426.817 2421.5,452.5C 2420.07,453.78 2419.4,455.447 2419.5,457.5C 2416.48,457.665 2413.48,457.498 2410.5,457C 2409.38,456.161 2408.71,454.994 2408.5,453.5C 2410.3,445.535 2411.64,437.535 2412.5,429.5C 2415.67,411.155 2419.17,392.822 2423,374.5C 2424.86,365.134 2424.86,355.801 2423,346.5C 2420.72,342.386 2417.88,338.72 2414.5,335.5C 2414.64,333.738 2414.31,332.071 2413.5,330.5C 2413.83,330.167 2414.17,329.833 2414.5,329.5C 2415.25,330.376 2415.75,331.376 2416,332.5C 2417.2,329.97 2419.03,327.97 2421.5,326.5C 2422.59,327.391 2422.59,328.391 2421.5,329.5C 2423.35,330.593 2425.02,331.926 2426.5,333.5C 2427.39,332.675 2427.72,331.675 2427.5,330.5 Z"/></g>
<g><path style="opacity:1" fill="#026ec9" d="M 2573.5,383.5 C 2571.74,382.674 2570.4,381.341 2569.5,379.5C 2567.79,375.539 2568.45,374.872 2571.5,377.5C 2572.94,374.956 2574.44,374.956 2576,377.5C 2577.11,376.289 2578.28,376.289 2579.5,377.5C 2581.17,379 2582.83,380.5 2584.5,382C 2586.58,382.529 2588.42,382.029 2590,380.5C 2590.5,380.833 2591,381.167 2591.5,381.5C 2590.83,382.167 2590.17,382.833 2589.5,383.5C 2590.72,384.096 2592.05,384.263 2593.5,384C 2592.3,384.903 2591.47,386.069 2591,387.5C 2588.48,386.209 2586.15,386.542 2584,388.5C 2582.9,387.616 2582.4,386.616 2582.5,385.5C 2581.71,385.931 2580.87,386.265 2580,386.5C 2578.7,385.293 2577.2,384.626 2575.5,384.5C 2575.66,383.127 2575.49,381.793 2575,380.5C 2574.77,381.737 2574.27,382.737 2573.5,383.5 Z"/></g>
<g><path style="opacity:1" fill="#3479b9" d="M 3022.5,351.5 C 3023.6,358.669 3023.6,366.002 3022.5,373.5C 3021,380.521 3019.5,387.521 3018,394.5C 3017.62,395.056 3017.12,395.389 3016.5,395.5C 3017.89,388.15 3019.39,380.817 3021,373.5C 3022.04,366.201 3022.54,358.868 3022.5,351.5 Z"/></g>
<g><path style="opacity:1" fill="#0e6fc5" d="M 1964.5,426.5 C 1966.12,425.411 1966.95,423.744 1967,421.5C 1967.81,417.642 1967.64,413.976 1966.5,410.5C 1965.55,405.714 1962.88,402.214 1958.5,400C 1943.23,396.675 1927.9,393.675 1912.5,391C 1895.81,385.457 1888.97,373.957 1892,356.5C 1896.6,339.227 1907.44,327.727 1924.5,322C 1943.1,317.44 1961.1,319.107 1978.5,327C 1982.26,328.588 1985.26,331.088 1987.5,334.5C 1984.47,337.368 1981.3,340.035 1978,342.5C 1963.42,331.934 1947.25,328.768 1929.5,333C 1911.93,338.999 1904.09,351.165 1906,369.5C 1907.36,372.735 1909.53,375.235 1912.5,377C 1917.46,379.127 1922.63,380.627 1928,381.5C 1937.88,382.705 1947.72,384.205 1957.5,386C 1975.45,391.032 1982.95,402.865 1980,421.5C 1976.99,437.002 1968.15,447.836 1953.5,454C 1947.56,455.983 1941.56,457.65 1935.5,459C 1923.45,459.891 1911.45,459.557 1899.5,458C 1888.38,454.944 1879.05,449.11 1871.5,440.5C 1874.83,437.5 1878.17,434.5 1881.5,431.5C 1896.46,446.579 1914.46,451.746 1935.5,447C 1948.41,444.564 1958.08,437.731 1964.5,426.5 Z"/></g>
<g><path style="opacity:1" fill="#0e6ec5" d="M 2779.5,405.5 C 2781.96,401.262 2782.96,396.596 2782.5,391.5C 2787.05,368.213 2791.38,344.88 2795.5,321.5C 2800.17,321.5 2804.83,321.5 2809.5,321.5C 2801.44,364.528 2792.94,407.528 2784,450.5C 2783.5,453.146 2783.34,455.813 2783.5,458.5C 2778.83,458.5 2774.17,458.5 2769.5,458.5C 2772.07,440.666 2775.4,422.999 2779.5,405.5 Z"/></g>
<g><path style="opacity:1" fill="#1767a7" d="M 2116.5,379.5 C 2141.48,381.491 2166.81,382.157 2192.5,381.5C 2167.01,382.498 2141.34,382.831 2115.5,382.5C 2115.26,381.209 2115.6,380.209 2116.5,379.5 Z"/></g>
<g><path style="opacity:1" fill="#1f71bf" d="M 2342.5,345.5 C 2342.72,351.139 2342.05,356.639 2340.5,362C 2340.54,363.764 2340.88,365.431 2341.5,367C 2340.55,367.483 2339.55,367.649 2338.5,367.5C 2338.49,376.242 2337.66,384.909 2336,393.5C 2335.67,392.167 2335.33,390.833 2335,389.5C 2334.83,390.5 2334.67,391.5 2334.5,392.5C 2335.38,395.812 2335.55,399.145 2335,402.5C 2334.81,400.423 2334.31,398.423 2333.5,396.5C 2333.17,397.833 2332.83,399.167 2332.5,400.5C 2333.32,403.967 2333.98,407.467 2334.5,411C 2334.17,412.5 2333.83,414 2333.5,415.5C 2332.68,412.553 2332.18,409.553 2332,406.5C 2331.25,409.818 2330.08,412.818 2328.5,415.5C 2333.01,392.038 2337.68,368.704 2342.5,345.5 Z"/></g>
<g><path style="opacity:1" fill="#0e6fc5" d="M 3209.5,319.5 C 3219.88,318.605 3229.88,320.105 3239.5,324C 3246.05,327.555 3250.89,332.721 3254,339.5C 3255.31,333.524 3256.47,327.524 3257.5,321.5C 3262.17,321.5 3266.83,321.5 3271.5,321.5C 3262.14,369.849 3252.64,418.182 3243,466.5C 3232.92,512.96 3204.75,531.46 3158.5,522C 3150.97,518.462 3144.63,513.462 3139.5,507C 3142.98,504.354 3146.31,501.521 3149.5,498.5C 3161.61,512.475 3176.61,516.641 3194.5,511C 3208.55,505.949 3218.39,496.449 3224,482.5C 3228.49,469.02 3231.83,455.354 3234,441.5C 3227.62,449.61 3219.45,455.11 3209.5,458C 3200.22,459.519 3190.89,459.853 3181.5,459C 3167.48,454.98 3158.98,445.813 3156,431.5C 3152.91,405.676 3156.25,380.676 3166,356.5C 3174.34,336.64 3188.84,324.307 3209.5,319.5 Z"/></g>
<g><path style="opacity:1" fill="#fcfefd" d="M 3210.5,331.5 C 3235.19,328.859 3247.52,339.859 3247.5,364.5C 3246.83,385.538 3242,405.538 3233,424.5C 3219.82,446.673 3201.32,452.839 3177.5,443C 3169.8,434.569 3166.47,424.569 3167.5,413C 3168.72,391.302 3174.22,370.802 3184,351.5C 3190.86,342.012 3199.69,335.345 3210.5,331.5 Z"/></g>
<g><path style="opacity:1" fill="#0d6ec5" d="M 2648.5,397.5 C 2648.8,401.105 2649.97,404.439 2652,407.5C 2652.8,415.274 2652.3,422.941 2650.5,430.5C 2642.79,446.216 2630.13,455.383 2612.5,458C 2600.88,459.554 2589.22,459.887 2577.5,459C 2564.2,456.854 2553.2,450.688 2544.5,440.5C 2547.83,437.5 2551.17,434.5 2554.5,431.5C 2569.05,446.621 2586.72,451.788 2607.5,447C 2618.39,444.806 2627.56,439.64 2635,431.5C 2645.44,410.761 2639.27,398.928 2616.5,396C 2602.03,395.84 2588.36,392.507 2575.5,386C 2574.62,385.292 2573.95,384.458 2573.5,383.5C 2574.27,382.737 2574.77,381.737 2575,380.5C 2575.49,381.793 2575.66,383.127 2575.5,384.5C 2577.2,384.626 2578.7,385.293 2580,386.5C 2580.87,386.265 2581.71,385.931 2582.5,385.5C 2582.4,386.616 2582.9,387.616 2584,388.5C 2586.15,386.542 2588.48,386.209 2591,387.5C 2591.47,386.069 2592.3,384.903 2593.5,384C 2592.05,384.263 2590.72,384.096 2589.5,383.5C 2590.17,382.833 2590.83,382.167 2591.5,381.5C 2591,381.167 2590.5,380.833 2590,380.5C 2588.42,382.029 2586.58,382.529 2584.5,382C 2582.83,380.5 2581.17,379 2579.5,377.5C 2578.28,376.289 2577.11,376.289 2576,377.5C 2574.44,374.956 2572.94,374.956 2571.5,377.5C 2568.45,374.872 2567.79,375.539 2569.5,379.5C 2566.97,377.11 2565.47,374.11 2565,370.5C 2564.54,341.606 2578.71,324.773 2607.5,320C 2622.09,318.151 2636.09,320.151 2649.5,326C 2653.93,327.877 2657.59,330.71 2660.5,334.5C 2657.68,336.817 2655.02,339.317 2652.5,342C 2651.5,342.667 2650.5,342.667 2649.5,342C 2642.93,336.219 2635.27,332.886 2626.5,332C 2608.06,328.252 2593.23,333.752 2582,348.5C 2577.38,357.231 2577.38,365.898 2582,374.5C 2584.25,376.377 2586.75,377.877 2589.5,379C 2602.74,381.695 2616.07,384.029 2629.5,386C 2637.49,387.356 2643.82,391.189 2648.5,397.5 Z"/></g>
<g><path style="opacity:1" fill="#3079be" d="M 2648.5,397.5 C 2650.5,400.16 2652,403.16 2653,406.5C 2653.67,412.5 2653.67,418.5 2653,424.5C 2652.16,426.611 2651.32,428.611 2650.5,430.5C 2652.3,422.941 2652.8,415.274 2652,407.5C 2649.97,404.439 2648.8,401.105 2648.5,397.5 Z"/></g>
<g><path style="opacity:1" fill="#4682bc" d="M 2782.5,391.5 C 2782.96,396.596 2781.96,401.262 2779.5,405.5C 2780.01,400.609 2781.01,395.942 2782.5,391.5 Z"/></g>
<g><path style="opacity:1" fill="#3d78b0" d="M 1966.5,410.5 C 1967.64,413.976 1967.81,417.642 1967,421.5C 1966.95,423.744 1966.12,425.411 1964.5,426.5C 1966.09,421.303 1966.75,415.969 1966.5,410.5 Z"/></g>
<g><path style="opacity:1" fill="#076ec6" d="M 2375.5,324.5 C 2378.16,324.162 2380.49,324.829 2382.5,326.5C 2383.59,325.609 2383.59,324.609 2382.5,323.5C 2383.5,323.167 2384.5,322.833 2385.5,322.5C 2394.87,324.206 2403.87,326.039 2412.5,328C 2404.57,329.875 2396.23,330.875 2387.5,331C 2383.07,332.114 2378.73,333.281 2374.5,334.5C 2374.5,335.5 2374.5,336.5 2374.5,337.5C 2360.59,346.299 2352.42,358.965 2350,375.5C 2345.1,399.837 2340.27,424.17 2335.5,448.5C 2333.31,450.522 2332.31,453.189 2332.5,456.5C 2328.77,456.823 2325.11,456.489 2321.5,455.5C 2322.39,452.916 2322.73,450.249 2322.5,447.5C 2324.14,447.714 2325.64,447.38 2327,446.5C 2327.67,443.5 2327.67,440.5 2327,437.5C 2326.64,439.608 2325.97,441.608 2325,443.5C 2324.83,442.333 2324.67,441.167 2324.5,440C 2325.88,436.362 2326.72,432.528 2327,428.5C 2327.48,429.448 2327.65,430.448 2327.5,431.5C 2328.5,431.5 2329.5,431.5 2330.5,431.5C 2329.13,426.277 2328.46,420.944 2328.5,415.5C 2330.08,412.818 2331.25,409.818 2332,406.5C 2332.18,409.553 2332.68,412.553 2333.5,415.5C 2333.83,414 2334.17,412.5 2334.5,411C 2333.98,407.467 2333.32,403.967 2332.5,400.5C 2332.83,399.167 2333.17,397.833 2333.5,396.5C 2334.31,398.423 2334.81,400.423 2335,402.5C 2335.55,399.145 2335.38,395.812 2334.5,392.5C 2334.67,391.5 2334.83,390.5 2335,389.5C 2335.33,390.833 2335.67,392.167 2336,393.5C 2337.66,384.909 2338.49,376.242 2338.5,367.5C 2339.55,367.649 2340.55,367.483 2341.5,367C 2340.88,365.431 2340.54,363.764 2340.5,362C 2342.05,356.639 2342.72,351.139 2342.5,345.5C 2344.04,337.54 2345.37,329.54 2346.5,321.5C 2351.17,321.5 2355.83,321.5 2360.5,321.5C 2359.5,326.476 2359,331.476 2359,336.5C 2363.59,331.135 2369.09,327.135 2375.5,324.5 Z"/></g>
<g><path style="opacity:1" fill="#2975c0" d="M 2328.5,415.5 C 2328.46,420.944 2329.13,426.277 2330.5,431.5C 2329.5,431.5 2328.5,431.5 2327.5,431.5C 2327.65,430.448 2327.48,429.448 2327,428.5C 2326.72,432.528 2325.88,436.362 2324.5,440C 2324.67,441.167 2324.83,442.333 2325,443.5C 2325.97,441.608 2326.64,439.608 2327,437.5C 2327.67,440.5 2327.67,443.5 2327,446.5C 2325.64,447.38 2324.14,447.714 2322.5,447.5C 2322.73,450.249 2322.39,452.916 2321.5,455.5C 2325.11,456.489 2328.77,456.823 2332.5,456.5C 2332.31,453.189 2333.31,450.522 2335.5,448.5C 2335.32,451.727 2334.66,454.727 2333.5,457.5C 2328.71,458.097 2324.37,457.43 2320.5,455.5C 2322.55,441.923 2325.22,428.59 2328.5,415.5 Z"/></g>
<g><path style="opacity:1" fill="#3a7cbb" d="M 2412.5,429.5 C 2411.64,437.535 2410.3,445.535 2408.5,453.5C 2408.71,454.994 2409.38,456.161 2410.5,457C 2413.48,457.498 2416.48,457.665 2419.5,457.5C 2419.4,455.447 2420.07,453.78 2421.5,452.5C 2421.17,454.5 2420.83,456.5 2420.5,458.5C 2415.83,458.5 2411.17,458.5 2406.5,458.5C 2407.95,448.603 2409.95,438.936 2412.5,429.5 Z"/></g>
<g><path style="opacity:1" fill="#4f8bbb" d="M 2320.5,455.5 C 2324.37,457.43 2328.71,458.097 2333.5,457.5C 2329.03,458.486 2324.36,458.819 2319.5,458.5C 2319.26,457.209 2319.6,456.209 2320.5,455.5 Z"/></g>
<g><path style="opacity:1" fill="#4a87bb" d="M 2918.5,454.5 C 2918.5,455.5 2918.5,456.5 2918.5,457.5C 2922.83,457.5 2927.17,457.5 2931.5,457.5C 2927.03,458.486 2922.36,458.819 2917.5,458.5C 2917.23,456.901 2917.57,455.568 2918.5,454.5 Z"/></g>
<g><path style="opacity:1" fill="#b7b7b7" d="M 1192.5,358.5 C 1192.5,402.833 1192.5,447.167 1192.5,491.5C 1239,491.168 1285.34,491.501 1331.5,492.5C 1284.83,492.5 1238.17,492.5 1191.5,492.5C 1191.17,447.664 1191.5,402.997 1192.5,358.5 Z"/></g>
<g><path style="opacity:1" fill="#858585" d="M 2529.5,541.5 C 2534.02,540.188 2538.68,540.188 2543.5,541.5C 2543.38,542.107 2543.04,542.44 2542.5,542.5C 2538.37,541.515 2534.03,541.182 2529.5,541.5 Z"/></g>
<g><path style="opacity:1" fill="#424242" d="M 2529.5,541.5 C 2534.03,541.182 2538.37,541.515 2542.5,542.5C 2539.45,556.421 2536.78,570.421 2534.5,584.5C 2543.83,584.5 2553.17,584.5 2562.5,584.5C 2561.95,587.807 2561.62,591.14 2561.5,594.5C 2551.58,594.181 2541.75,594.514 2532,595.5C 2525.83,627.182 2519.5,658.848 2513,690.5C 2510.86,699.053 2513.7,705.219 2521.5,709C 2527.82,709.5 2534.16,709.666 2540.5,709.5C 2539.21,713.384 2538.54,717.384 2538.5,721.5C 2531.49,721.666 2524.49,721.5 2517.5,721C 2508.08,719.244 2502.25,713.744 2500,704.5C 2499.33,698.167 2499.33,691.833 2500,685.5C 2505.9,656.164 2511.73,626.831 2517.5,597.5C 2518.4,596.791 2518.74,595.791 2518.5,594.5C 2512.07,595.12 2506.07,594.453 2500.5,592.5C 2500.58,589.794 2500.91,587.127 2501.5,584.5C 2507.83,584.5 2514.17,584.5 2520.5,584.5C 2523.06,569.949 2526.06,555.616 2529.5,541.5 Z"/></g>
<g><path style="opacity:1" fill="#7f7f7f" d="M 1524.5,542.5 C 1521.83,542.5 1519.17,542.5 1516.5,542.5C 1516.5,603.833 1516.5,665.167 1516.5,726.5C 1499.99,726.83 1483.66,726.496 1467.5,725.5C 1483.5,725.5 1499.5,725.5 1515.5,725.5C 1515.5,664.167 1515.5,602.833 1515.5,541.5C 1518.71,541.19 1521.71,541.523 1524.5,542.5 Z"/></g>
<g><path style="opacity:1" fill="#d5d5d5" d="M 375.5,563.5 C 351.339,564.498 327.006,564.831 302.5,564.5C 302.832,618.336 302.499,672.003 301.5,725.5C 301.5,671.5 301.5,617.5 301.5,563.5C 326.167,563.5 350.833,563.5 375.5,563.5 Z"/></g>
<g><path style="opacity:1" fill="#424242" d="M 1944.5,583.5 C 1954.17,583.334 1963.84,583.5 1973.5,584C 1984.05,586.107 1993.38,590.607 2001.5,597.5C 1998.46,600.547 1995.12,603.213 1991.5,605.5C 1976.97,595.255 1960.97,592.088 1943.5,596C 1924.73,602.402 1916.9,615.235 1920,634.5C 1923.94,639.559 1929.11,642.726 1935.5,644C 1946.83,645.666 1958.16,647.333 1969.5,649C 1989.63,654.059 1997.46,666.892 1993,687.5C 1989.51,701.627 1981.01,711.46 1967.5,717C 1944.64,725.909 1921.97,725.575 1899.5,716C 1894.71,712.882 1890.21,709.382 1886,705.5C 1887.54,701.917 1890.04,698.75 1893.5,696C 1894.5,695.333 1895.5,695.333 1896.5,696C 1910.06,709.481 1926.39,714.481 1945.5,711C 1957.26,709.373 1967.09,704.206 1975,695.5C 1980.82,686.962 1981.82,677.962 1978,668.5C 1973.14,663.764 1967.31,660.931 1960.5,660C 1946.78,659.12 1933.45,656.454 1920.5,652C 1905.6,643.463 1901.1,630.963 1907,614.5C 1914.02,597.423 1926.52,587.09 1944.5,583.5 Z"/></g>
<g><path style="opacity:1" fill="#434343" d="M 2335.5,583.5 C 2346.88,583.144 2358.21,583.644 2369.5,585C 2378.39,587.107 2386.05,591.273 2392.5,597.5C 2390,600.993 2386.84,603.66 2383,605.5C 2368.68,595.381 2352.85,592.214 2335.5,596C 2315.26,602.664 2307.76,616.164 2313,636.5C 2318.55,641.355 2325.05,644.188 2332.5,645C 2341.52,646.114 2350.52,647.447 2359.5,649C 2379.96,652.741 2388.46,664.907 2385,685.5C 2382.49,698.686 2375.32,708.52 2363.5,715C 2343.1,724.07 2322.1,725.737 2300.5,720C 2290.89,717.05 2282.89,711.717 2276.5,704C 2279.83,700.536 2283.5,697.869 2287.5,696C 2302.84,710.276 2320.84,714.942 2341.5,710C 2352.4,707.643 2361.23,702.143 2368,693.5C 2376.9,672.054 2369.73,660.554 2346.5,659C 2331.25,659.024 2317.25,655.024 2304.5,647C 2296.98,638.067 2294.81,627.9 2298,616.5C 2300.78,606.724 2306.28,598.891 2314.5,593C 2321.1,588.698 2328.1,585.531 2335.5,583.5 Z"/></g>
<g><path style="opacity:1" fill="#424242" d="M 2704.5,583.5 C 2743.87,580.033 2762.37,598.033 2760,637.5C 2758.75,643.448 2757.91,649.448 2757.5,655.5C 2727.16,655.167 2696.83,655.5 2666.5,656.5C 2663.19,670.113 2664.02,683.446 2669,696.5C 2673.72,704.868 2680.88,709.702 2690.5,711C 2708.61,712.354 2724.27,706.854 2737.5,694.5C 2740.83,697.167 2743.83,700.167 2746.5,703.5C 2732.56,717.097 2715.73,723.764 2696,723.5C 2664.83,721.535 2649.99,704.868 2651.5,673.5C 2650.55,642.162 2661.21,615.662 2683.5,594C 2690.04,589.394 2697.04,585.894 2704.5,583.5 Z"/></g>
<g><path style="opacity:1" fill="#424242" d="M 2926.5,583.5 C 2949.89,578.431 2966.72,586.431 2977,607.5C 2997.39,582.526 3022.23,576.693 3051.5,590C 3063.86,600.744 3068.36,614.244 3065,630.5C 3058.97,660.81 3053.14,691.144 3047.5,721.5C 3042.83,721.5 3038.17,721.5 3033.5,721.5C 3040.26,688.252 3046.6,654.919 3052.5,621.5C 3050.88,603.72 3041.05,594.72 3023,594.5C 3003.91,595.879 2990.24,605.212 2982,622.5C 2980.08,628.079 2978.42,633.746 2977,639.5C 2971.25,666.745 2966.08,694.078 2961.5,721.5C 2956.83,721.5 2952.17,721.5 2947.5,721.5C 2952.68,693.449 2958.18,665.449 2964,637.5C 2970.92,605.764 2958.42,591.931 2926.5,596C 2912.38,599.79 2902.21,608.29 2896,621.5C 2893.73,626.64 2892.06,631.973 2891,637.5C 2885.31,665.473 2879.81,693.473 2874.5,721.5C 2869.82,721.666 2865.15,721.499 2860.5,721C 2869.45,675.497 2878.45,629.997 2887.5,584.5C 2892.17,584.5 2896.83,584.5 2901.5,584.5C 2900.33,589.833 2899.5,595.166 2899,600.5C 2906.58,592.133 2915.75,586.466 2926.5,583.5 Z"/></g>
<g><path style="opacity:1" fill="#434343" d="M 3213.5,583.5 C 3224.55,583.121 3235.55,583.621 3246.5,585C 3255.82,586.823 3263.82,590.99 3270.5,597.5C 3268,600.993 3264.84,603.66 3261,605.5C 3246.65,595.47 3230.82,592.303 3213.5,596C 3195.71,601.779 3187.54,613.946 3189,632.5C 3191.43,637.979 3195.6,641.479 3201.5,643C 3212.15,644.846 3222.81,646.513 3233.5,648C 3257.1,650.933 3266.94,664.099 3263,687.5C 3256.81,705.684 3244.31,716.85 3225.5,721C 3205.39,725.849 3186.05,723.849 3167.5,715C 3162.58,712.084 3158.25,708.418 3154.5,704C 3157.83,700.536 3161.5,697.869 3165.5,696C 3178.54,708.85 3194.21,713.85 3212.5,711C 3226.16,709.753 3237.33,703.92 3246,693.5C 3249.26,686.501 3250.26,679.168 3249,671.5C 3245.86,665.17 3240.7,661.67 3233.5,661C 3220.77,658.928 3208.1,656.595 3195.5,654C 3179.23,648.709 3172.4,637.542 3175,620.5C 3177.55,607.629 3184.38,597.796 3195.5,591C 3201.33,587.788 3207.33,585.288 3213.5,583.5 Z"/></g>
<g><path style="opacity:1" fill="#424242" d="M 2102.5,584.5 C 2107.5,584.5 2112.5,584.5 2117.5,584.5C 2122.12,624.228 2127.28,663.895 2133,703.5C 2153.76,664.324 2174.26,624.991 2194.5,585.5C 2199.8,584.337 2205.14,584.171 2210.5,585C 2178.13,645.58 2145.63,706.08 2113,766.5C 2102.77,780.521 2088.93,786.188 2071.5,783.5C 2072.79,779.616 2073.46,775.616 2073.5,771.5C 2082.62,772.949 2090.79,770.949 2098,765.5C 2106.76,751.651 2114.76,737.318 2122,722.5C 2116.48,676.365 2109.98,630.365 2102.5,584.5 Z"/></g>
<g><path style="opacity:1" fill="#bdbdbd" d="M 2500.5,592.5 C 2506.07,594.453 2512.07,595.12 2518.5,594.5C 2518.74,595.791 2518.4,596.791 2517.5,597.5C 2511.93,595.547 2505.93,594.88 2499.5,595.5C 2499.26,594.209 2499.6,593.209 2500.5,592.5 Z"/></g>
<g><path style="opacity:1" fill="#fdfdfd" d="M 2745.5,644.5 C 2719.81,645.157 2694.48,644.491 2669.5,642.5C 2673.09,623.797 2682.75,609.297 2698.5,599C 2714.61,591.004 2728.78,593.504 2741,606.5C 2743.22,610.271 2744.89,614.271 2746,618.5C 2746.74,627.202 2746.58,635.868 2745.5,644.5 Z"/></g>
<g><path style="opacity:1" fill="#8c8c8c" d="M 2669.5,642.5 C 2694.48,644.491 2719.81,645.157 2745.5,644.5C 2720.01,645.498 2694.34,645.831 2668.5,645.5C 2668.26,644.209 2668.6,643.209 2669.5,642.5 Z"/></g>
<g><path style="opacity:1" fill="#989898" d="M 1725.5,724.5 C 1726.04,724.56 1726.38,724.893 1726.5,725.5C 1706,726.828 1685.67,726.828 1665.5,725.5C 1685.67,725.83 1705.67,725.497 1725.5,724.5 Z"/></g>
<g><path style="opacity:1" fill="#106fc5" d="M 1289.5,789.5 C 1290.38,798.133 1290.71,806.8 1290.5,815.5C 1281.86,840.51 1264.19,851.343 1237.5,848C 1209.23,837.632 1198.73,817.799 1206,788.5C 1217.54,764.481 1236.38,755.648 1262.5,762C 1275.72,767.051 1284.72,776.217 1289.5,789.5 Z"/></g>
<g><path style="opacity:1" fill="#f8fcfc" d="M 1241.5,768.5 C 1269.6,768.101 1283.43,781.768 1283,809.5C 1276.78,833.038 1261.62,842.871 1237.5,839C 1214.57,828.549 1207.4,811.382 1216,787.5C 1221.94,777.623 1230.44,771.29 1241.5,768.5 Z"/></g>
<g><path style="opacity:1" fill="#4384c0" d="M 1256.5,782.5 C 1247.17,782.5 1237.83,782.5 1228.5,782.5C 1228.5,797.5 1228.5,812.5 1228.5,827.5C 1231.17,827.5 1233.83,827.5 1236.5,827.5C 1236.5,821.167 1236.5,814.833 1236.5,808.5C 1236.83,808.5 1237.17,808.5 1237.5,808.5C 1237.5,815.167 1237.5,821.833 1237.5,828.5C 1234.17,828.5 1230.83,828.5 1227.5,828.5C 1227.5,812.5 1227.5,796.5 1227.5,780.5C 1236.17,780.334 1244.84,780.5 1253.5,781C 1254.74,781.232 1255.74,781.732 1256.5,782.5 Z"/></g>
<g><path style="opacity:1" fill="#ebfefe" d="M 1172.5,799.5 C 1172.5,835.5 1172.5,871.5 1172.5,907.5C 1179.31,908.491 1186.31,908.825 1193.5,908.5C 1193.5,872.167 1193.5,835.833 1193.5,799.5C 1194.17,836.569 1194.84,873.736 1195.5,911C 1188.05,909.489 1180.38,909.155 1172.5,910C 1172.83,910.333 1173.17,910.667 1173.5,911C 1172.55,911.483 1171.55,911.649 1170.5,911.5C 1171.12,874.01 1171.78,836.676 1172.5,799.5 Z"/></g>
<g><path style="opacity:1" fill="#016dc7" d="M 1173.5,799.5 C 1179.83,799.5 1186.17,799.5 1192.5,799.5C 1192.5,835.5 1192.5,871.5 1192.5,907.5C 1186.5,907.5 1180.5,907.5 1174.5,907.5C 1173.51,871.573 1173.17,835.573 1173.5,799.5 Z"/></g>
<g><path style="opacity:1" fill="#c1f5ff" d="M 830.5,799.5 C 831.167,812.167 831.833,824.833 832.5,837.5C 832.167,838.167 831.833,838.833 831.5,839.5C 830.504,826.344 830.171,813.01 830.5,799.5 Z"/></g>
<g><path style="opacity:1" fill="#1e67a0" d="M 1172.5,799.5 C 1172.83,799.5 1173.17,799.5 1173.5,799.5C 1173.17,835.573 1173.51,871.573 1174.5,907.5C 1173.83,907.5 1173.17,907.5 1172.5,907.5C 1172.5,871.5 1172.5,835.5 1172.5,799.5 Z"/></g>
<g><path style="opacity:1" fill="#4180c0" d="M 1289.5,789.5 C 1293.05,798.048 1293.38,806.715 1290.5,815.5C 1290.71,806.8 1290.38,798.133 1289.5,789.5 Z"/></g>
<g><path style="opacity:1" fill="#086cbe" d="M 810.5,799.5 C 817.167,799.5 823.833,799.5 830.5,799.5C 830.171,813.01 830.504,826.344 831.5,839.5C 830.752,841.735 829.919,841.402 829,838.5C 828.5,825.838 828.333,813.171 828.5,800.5C 823.833,800.5 819.167,800.5 814.5,800.5C 814.171,832.407 814.504,864.24 815.5,896C 814.551,896.617 813.718,896.451 813,895.5C 812.667,863.833 812.333,832.167 812,800.5C 811.333,834.5 811.333,868.5 812,902.5C 812.219,901.062 812.719,899.729 813.5,898.5C 814.466,900.396 814.799,902.396 814.5,904.5C 813.325,904.281 812.325,904.614 811.5,905.5C 817.128,906.495 822.794,906.829 828.5,906.5C 828.333,890.497 828.5,874.497 829,858.5C 829.417,857.244 830.25,856.577 831.5,856.5C 830.528,873.453 830.195,890.453 830.5,907.5C 823.833,907.5 817.167,907.5 810.5,907.5C 810.5,871.5 810.5,835.5 810.5,799.5 Z"/></g>
<g><path style="opacity:1" fill="#63a3d7" d="M 810.5,799.5 C 810.5,835.5 810.5,871.5 810.5,907.5C 817.167,907.5 823.833,907.5 830.5,907.5C 823.687,908.491 816.687,908.825 809.5,908.5C 809.168,871.996 809.502,835.663 810.5,799.5 Z"/></g>
<g><path style="opacity:1" fill="#106ec3" d="M 1256.5,782.5 C 1262.69,783.672 1265.69,787.505 1265.5,794C 1265.23,801.279 1261.56,805.946 1254.5,808C 1260.17,813.157 1264.5,819.324 1267.5,826.5C 1264.04,827.482 1260.37,827.815 1256.5,827.5C 1254.23,822.725 1251.73,818.058 1249,813.5C 1246.18,809.507 1242.35,807.84 1237.5,808.5C 1237.17,808.5 1236.83,808.5 1236.5,808.5C 1234.86,805.724 1233.36,802.724 1232,799.5C 1232.36,804.795 1232.02,810.128 1231,815.5C 1230.33,804.833 1230.33,794.167 1231,783.5C 1231.33,787.5 1231.67,791.5 1232,795.5C 1232.5,792.854 1232.66,790.187 1232.5,787.5C 1235.67,787.599 1238.67,786.932 1241.5,785.5C 1241.29,784.914 1240.96,784.414 1240.5,784C 1243.17,783.333 1245.83,783.333 1248.5,784C 1247.38,785.044 1246.04,785.71 1244.5,786C 1247.05,786.002 1249.05,786.836 1250.5,788.5C 1254.13,788.205 1256.13,786.205 1256.5,782.5 Z"/></g>
<g><path style="opacity:1" fill="#f4fafa" d="M 1250.5,788.5 C 1255.08,789.786 1256.58,792.786 1255,797.5C 1253.79,799.049 1252.29,800.215 1250.5,801C 1246.18,801.499 1241.85,801.666 1237.5,801.5C 1237.5,797.167 1237.5,792.833 1237.5,788.5C 1241.83,788.5 1246.17,788.5 1250.5,788.5 Z"/></g>
<g><path style="opacity:1" fill="#4790cb" d="M 1192.5,799.5 C 1192.83,799.5 1193.17,799.5 1193.5,799.5C 1193.5,835.833 1193.5,872.167 1193.5,908.5C 1186.31,908.825 1179.31,908.491 1172.5,907.5C 1173.17,907.5 1173.83,907.5 1174.5,907.5C 1180.5,907.5 1186.5,907.5 1192.5,907.5C 1192.5,871.5 1192.5,835.5 1192.5,799.5 Z"/></g>
<g><path style="opacity:1" fill="#026eca" d="M 1256.5,782.5 C 1256.13,786.205 1254.13,788.205 1250.5,788.5C 1249.05,786.836 1247.05,786.002 1244.5,786C 1246.04,785.71 1247.38,785.044 1248.5,784C 1245.83,783.333 1243.17,783.333 1240.5,784C 1240.96,784.414 1241.29,784.914 1241.5,785.5C 1238.67,786.932 1235.67,787.599 1232.5,787.5C 1232.66,790.187 1232.5,792.854 1232,795.5C 1231.67,791.5 1231.33,787.5 1231,783.5C 1230.33,794.167 1230.33,804.833 1231,815.5C 1232.02,810.128 1232.36,804.795 1232,799.5C 1233.36,802.724 1234.86,805.724 1236.5,808.5C 1236.5,814.833 1236.5,821.167 1236.5,827.5C 1233.83,827.5 1231.17,827.5 1228.5,827.5C 1228.5,812.5 1228.5,797.5 1228.5,782.5C 1237.83,782.5 1247.17,782.5 1256.5,782.5 Z"/></g>
<g><path style="opacity:1" fill="#086ec5" d="M 570.5,906.5 C 563.018,907.492 555.352,907.825 547.5,907.5C 544.704,899.783 541.704,892.116 538.5,884.5C 523.845,883.334 509.178,883.167 494.5,884C 491.398,891.806 488.398,899.639 485.5,907.5C 477.981,907.825 470.648,907.492 463.5,906.5C 476.499,871.007 489.999,835.674 504,800.5C 512,799.167 520,799.167 528,800.5C 542.438,835.712 556.605,871.045 570.5,906.5 Z"/></g>
<g><path style="opacity:1" fill="#679cc7" d="M 1267.5,826.5 C 1268.04,826.56 1268.38,826.893 1268.5,827.5C 1264.35,828.809 1260.35,828.809 1256.5,827.5C 1260.37,827.815 1264.04,827.482 1267.5,826.5 Z"/></g>
<g><path style="opacity:1" fill="#4888c2" d="M 1568.5,828.5 C 1562.71,828.312 1557.05,828.978 1551.5,830.5C 1556.93,827.552 1562.6,826.886 1568.5,828.5 Z"/></g>
<g><path style="opacity:1" fill="#76a7cf" d="M 717.5,829.5 C 717.5,865.5 717.5,901.5 717.5,937.5C 724.167,937.5 730.833,937.5 737.5,937.5C 730.687,938.491 723.687,938.825 716.5,938.5C 716.168,901.996 716.502,865.663 717.5,829.5 Z"/></g>
<g><path style="opacity:1" fill="#156ab2" d="M 717.5,829.5 C 723.833,829.5 730.167,829.5 736.5,829.5C 736.5,832.833 736.5,836.167 736.5,839.5C 735.523,836.713 735.19,833.713 735.5,830.5C 729.833,830.5 724.167,830.5 718.5,830.5C 718.5,865.833 718.5,901.167 718.5,936.5C 724.5,936.5 730.5,936.5 736.5,936.5C 736.171,923.989 736.505,911.655 737.5,899.5C 737.5,912.167 737.5,924.833 737.5,937.5C 730.833,937.5 724.167,937.5 717.5,937.5C 717.5,901.5 717.5,865.5 717.5,829.5 Z"/></g>
<g><path style="opacity:1" fill="#026ec8" d="M 736.5,839.5 C 738.5,837.833 740.5,836.167 742.5,834.5C 744.167,834.5 745.833,834.5 747.5,834.5C 747.105,837.523 748.105,838.523 750.5,837.5C 751.386,838.325 751.719,839.325 751.5,840.5C 757.51,840.775 757.843,839.942 752.5,838C 753.774,836.779 755.274,835.946 757,835.5C 759.384,837.689 762.218,839.022 765.5,839.5C 767.628,838.946 769.128,837.613 770,835.5C 773.401,837.605 773.234,839.272 769.5,840.5C 768.009,841.244 766.509,841.91 765,842.5C 762.114,839.373 759.28,839.207 756.5,842C 754.167,842.667 751.833,842.667 749.5,842C 747.649,840.316 745.982,838.483 744.5,836.5C 743.5,836.833 742.833,837.5 742.5,838.5C 744.208,840.543 746.208,842.21 748.5,843.5C 747.311,844.429 745.978,844.762 744.5,844.5C 744.5,845.5 744.5,846.5 744.5,847.5C 741.324,850.511 739.157,854.178 738,858.5C 736.555,868.219 737.721,877.552 741.5,886.5C 741.631,887.376 741.298,888.043 740.5,888.5C 739.148,887.482 738.148,886.149 737.5,884.5C 737.167,885 736.833,885.5 736.5,886C 737.672,889.185 739.672,891.685 742.5,893.5C 740.78,894.934 738.78,895.767 736.5,896C 737.5,896.333 738.5,896.667 739.5,897C 738.619,897.708 737.953,898.542 737.5,899.5C 736.505,911.655 736.171,923.989 736.5,936.5C 730.5,936.5 724.5,936.5 718.5,936.5C 718.5,901.167 718.5,865.833 718.5,830.5C 724.167,830.5 729.833,830.5 735.5,830.5C 735.19,833.713 735.523,836.713 736.5,839.5 Z"/></g>
<g><path style="opacity:1" fill="#71a6d1" d="M 987.5,829.5 C 987.5,855.5 987.5,881.5 987.5,907.5C 994.167,907.5 1000.83,907.5 1007.5,907.5C 1000.69,908.491 993.687,908.825 986.5,908.5C 986.169,881.995 986.502,855.661 987.5,829.5 Z"/></g>
<g><path style="opacity:1" fill="#0c6ec6" d="M 1370.5,827.5 C 1380.75,826.326 1390.42,828.159 1399.5,833C 1406.73,837.949 1411.06,844.783 1412.5,853.5C 1405.48,854.282 1398.48,855.282 1391.5,856.5C 1391.48,850.291 1388.48,846.457 1382.5,845C 1372.07,842.463 1365.24,846.296 1362,856.5C 1361.33,864.167 1361.33,871.833 1362,879.5C 1365.57,890.538 1373.07,894.705 1384.5,892C 1389.05,888.774 1392.05,884.44 1393.5,879C 1400.22,879.173 1406.88,880.006 1413.5,881.5C 1410.94,895.892 1402.61,905.059 1388.5,909C 1362.26,913.648 1346.1,903.148 1340,877.5C 1337.01,861.408 1341.18,847.574 1352.5,836C 1357.95,831.772 1363.95,828.939 1370.5,827.5 Z"/></g>
<g><path style="opacity:1" fill="#1368b1" d="M 1674.5,838.5 C 1673.83,835.833 1673.17,833.167 1672.5,830.5C 1667.17,830.5 1661.83,830.5 1656.5,830.5C 1656.5,865.833 1656.5,901.167 1656.5,936.5C 1662.5,936.5 1668.5,936.5 1674.5,936.5C 1674.5,927.5 1674.5,918.5 1674.5,909.5C 1674.26,908.209 1674.6,907.209 1675.5,906.5C 1675.5,916.833 1675.5,927.167 1675.5,937.5C 1668.83,937.5 1662.17,937.5 1655.5,937.5C 1655.5,901.5 1655.5,865.5 1655.5,829.5C 1661.83,829.5 1668.17,829.5 1674.5,829.5C 1674.5,832.5 1674.5,835.5 1674.5,838.5 Z"/></g>
<g><path style="opacity:1" fill="#6fa5cf" d="M 1829.5,829.5 C 1829.5,855.5 1829.5,881.5 1829.5,907.5C 1836.17,907.5 1842.83,907.5 1849.5,907.5C 1842.69,908.491 1835.69,908.825 1828.5,908.5C 1828.17,881.995 1828.5,855.661 1829.5,829.5 Z"/></g>
<g><path style="opacity:1" fill="#0d6ab5" d="M 1829.5,829.5 C 1835.5,829.5 1841.5,829.5 1847.5,829.5C 1847.5,830.5 1847.5,831.5 1847.5,832.5C 1847.17,832.5 1846.83,832.5 1846.5,832.5C 1841.6,830.554 1836.27,829.887 1830.5,830.5C 1830.5,855.833 1830.5,881.167 1830.5,906.5C 1836.5,906.5 1842.5,906.5 1848.5,906.5C 1848.5,891.5 1848.5,876.5 1848.5,861.5C 1848.83,861.5 1849.17,861.5 1849.5,861.5C 1849.5,876.833 1849.5,892.167 1849.5,907.5C 1842.83,907.5 1836.17,907.5 1829.5,907.5C 1829.5,881.5 1829.5,855.5 1829.5,829.5 Z"/></g>
<g><path style="opacity:1" fill="#006ecb" d="M 1846.5,832.5 C 1846.96,836.111 1846.29,839.444 1844.5,842.5C 1846.17,843.5 1847.5,844.833 1848.5,846.5C 1847.61,847.59 1846.61,847.59 1845.5,846.5C 1844.07,844.614 1842.4,842.947 1840.5,841.5C 1839.33,843.365 1839.67,845.032 1841.5,846.5C 1840.31,848.623 1839.64,850.957 1839.5,853.5C 1840.72,867.501 1840.72,881.501 1839.5,895.5C 1838.17,810.167 1836.83,810.167 1835.5,895.5C 1834.83,874.167 1834.17,852.833 1833.5,831.5C 1832.5,855.824 1832.17,880.158 1832.5,904.5C 1834.92,904.808 1837.26,904.474 1839.5,903.5C 1838.31,902.571 1836.98,902.238 1835.5,902.5C 1835.24,901.022 1835.57,899.689 1836.5,898.5C 1839.08,897.607 1841.75,897.274 1844.5,897.5C 1844.5,899.167 1844.5,900.833 1844.5,902.5C 1843.02,902.238 1841.69,902.571 1840.5,903.5C 1842.4,904.466 1844.4,904.799 1846.5,904.5C 1846.33,890.163 1846.5,875.829 1847,861.5C 1847.69,860.262 1848.19,860.262 1848.5,861.5C 1848.5,876.5 1848.5,891.5 1848.5,906.5C 1842.5,906.5 1836.5,906.5 1830.5,906.5C 1830.5,881.167 1830.5,855.833 1830.5,830.5C 1836.27,829.887 1841.6,830.554 1846.5,832.5 Z"/></g>
<g><path style="opacity:1" fill="#f8fcfc" d="M 530.5,864.5 C 520.773,865.139 511.44,864.472 502.5,862.5C 506.514,849.954 511.014,837.621 516,825.5C 521.416,838.322 526.249,851.322 530.5,864.5 Z"/></g>
<g><path style="opacity:1" fill="#6ca3ce" d="M 1847.5,829.5 C 1848.17,832.833 1848.83,836.167 1849.5,839.5C 1849.44,840.043 1849.11,840.376 1848.5,840.5C 1847.52,837.914 1847.19,835.247 1847.5,832.5C 1847.5,831.5 1847.5,830.5 1847.5,829.5 Z"/></g>
<g><path style="opacity:1" fill="#036ec6" d="M 831.5,839.5 C 831.833,838.833 832.167,838.167 832.5,837.5C 847.321,824.199 862.154,824.199 877,837.5C 878.122,839.407 878.955,841.407 879.5,843.5C 880.454,864.473 880.788,885.473 880.5,906.5C 874.5,906.5 868.5,906.5 862.5,906.5C 862.667,889.83 862.5,873.163 862,856.5C 861.802,854.618 861.302,852.952 860.5,851.5C 856.329,844.922 850.329,842.422 842.5,844C 836.852,846.478 833.185,850.645 831.5,856.5C 830.25,856.577 829.417,857.244 829,858.5C 828.5,874.497 828.333,890.497 828.5,906.5C 822.794,906.829 817.128,906.495 811.5,905.5C 812.325,904.614 813.325,904.281 814.5,904.5C 814.799,902.396 814.466,900.396 813.5,898.5C 812.719,899.729 812.219,901.062 812,902.5C 811.333,868.5 811.333,834.5 812,800.5C 812.333,832.167 812.667,863.833 813,895.5C 813.718,896.451 814.551,896.617 815.5,896C 814.504,864.24 814.171,832.407 814.5,800.5C 819.167,800.5 823.833,800.5 828.5,800.5C 828.333,813.171 828.5,825.838 829,838.5C 829.919,841.402 830.752,841.735 831.5,839.5 Z"/></g>
<g><path style="opacity:1" fill="#046ec6" d="M 1057.5,845.5 C 1057.5,865.833 1057.5,886.167 1057.5,906.5C 1051.17,906.5 1044.83,906.5 1038.5,906.5C 1038.83,889.658 1038.5,872.992 1037.5,856.5C 1036.26,846.529 1030.59,842.362 1020.5,844C 1013.45,846.377 1009.29,851.21 1008,858.5C 1007.5,874.83 1007.33,891.163 1007.5,907.5C 1000.83,907.5 994.167,907.5 987.5,907.5C 987.5,881.5 987.5,855.5 987.5,829.5C 993.833,829.5 1000.17,829.5 1006.5,829.5C 1006.33,832.85 1006.5,836.183 1007,839.5C 1021.27,825.172 1036.6,823.839 1053,835.5C 1055.32,838.48 1056.82,841.813 1057.5,845.5 Z"/></g>
<g><path style="opacity:1" fill="#066dc5" d="M 696.5,852.5 C 696.5,870.833 696.5,889.167 696.5,907.5C 689.833,907.5 683.167,907.5 676.5,907.5C 676.83,889.992 676.497,872.659 675.5,855.5C 674.724,846.23 669.724,842.396 660.5,844C 654.455,846.901 650.955,851.735 650,858.5C 649.5,874.83 649.333,891.163 649.5,907.5C 642.833,907.5 636.167,907.5 629.5,907.5C 629.83,888.659 629.497,869.993 628.5,851.5C 625.67,844.752 620.67,842.252 613.5,844C 607.852,846.478 604.185,850.645 602.5,856.5C 601.5,856.5 600.5,856.5 599.5,856.5C 600.457,873.132 600.79,889.799 600.5,906.5C 594.5,906.5 588.5,906.5 582.5,906.5C 582.5,881.167 582.5,855.833 582.5,830.5C 587.844,830.334 593.177,830.501 598.5,831C 599.128,833.939 599.795,836.772 600.5,839.5C 616.296,823.545 631.963,823.545 647.5,839.5C 660.786,825.156 675.286,823.822 691,835.5C 694.938,840.482 696.772,846.149 696.5,852.5 Z"/></g>
<g><path style="opacity:1" fill="#0b6ec5" d="M 1108.5,827.5 C 1143.17,827.67 1158.67,845.004 1155,879.5C 1146.51,903.336 1129.68,913.169 1104.5,909C 1089.22,904.724 1079.72,894.891 1076,879.5C 1071.48,852.159 1082.31,834.825 1108.5,827.5 Z"/></g>
<g><path style="opacity:1" fill="#086ec5" d="M 1634.5,847.5 C 1634.5,867.5 1634.5,887.5 1634.5,907.5C 1627.83,907.5 1621.17,907.5 1614.5,907.5C 1614.67,889.164 1614.5,870.83 1614,852.5C 1613.58,849.975 1612.41,847.975 1610.5,846.5C 1607.02,843.723 1603.02,842.89 1598.5,844C 1591.14,848.377 1587.64,854.877 1588,863.5C 1587.5,878.163 1587.33,892.83 1587.5,907.5C 1580.83,907.5 1574.17,907.5 1567.5,907.5C 1567.83,888.992 1567.5,870.659 1566.5,852.5C 1565.54,846.595 1562.04,843.595 1556,843.5C 1549.42,844.125 1544.76,847.459 1542,853.5C 1540.55,871.778 1540.05,890.111 1540.5,908.5C 1533.5,908.5 1526.5,908.5 1519.5,908.5C 1519.5,882.167 1519.5,855.833 1519.5,829.5C 1525.83,829.5 1532.17,829.5 1538.5,829.5C 1538.18,832.898 1538.51,836.232 1539.5,839.5C 1540.11,839.376 1540.44,839.043 1540.5,838.5C 1542.38,835.885 1544.71,833.719 1547.5,832C 1548.74,831.209 1550.08,830.709 1551.5,830.5C 1557.05,828.978 1562.71,828.312 1568.5,828.5C 1575.94,829.389 1581.61,833.056 1585.5,839.5C 1596.93,826.808 1610.27,824.308 1625.5,832C 1630.71,835.923 1633.71,841.09 1634.5,847.5 Z"/></g>
<g><path style="opacity:1" fill="#98d0f9" d="M 1538.5,829.5 C 1539.17,832.5 1539.83,835.5 1540.5,838.5C 1540.44,839.043 1540.11,839.376 1539.5,839.5C 1538.51,836.232 1538.18,832.898 1538.5,829.5 Z"/></g>
<g><path style="opacity:1" fill="#0b6ec5" d="M 326.5,906.5 C 320.021,907.491 313.354,907.824 306.5,907.5C 306.082,904.91 305.082,902.577 303.5,900.5C 292.944,909.487 280.944,911.987 267.5,908C 256.567,902.412 252.067,893.579 254,881.5C 257.335,872.166 263.835,866.333 273.5,864C 283.274,862.248 292.94,860.081 302.5,857.5C 304.083,849.812 301.083,845.312 293.5,844C 287.074,842.35 281.574,843.85 277,848.5C 275.991,850.025 275.491,851.692 275.5,853.5C 269.068,853.039 262.735,852.039 256.5,850.5C 258.407,839.426 264.74,832.26 275.5,829C 288.971,826.085 301.971,827.418 314.5,833C 318.116,835.742 320.616,839.242 322,843.5C 322.333,859.5 322.667,875.5 323,891.5C 323.699,896.629 324.866,901.629 326.5,906.5 Z"/></g>
<g><path style="opacity:1" fill="#0c6ec4" d="M 414.5,849.5 C 414.5,868.833 414.5,888.167 414.5,907.5C 407.833,907.5 401.167,907.5 394.5,907.5C 394.667,889.83 394.5,872.164 394,854.5C 388.588,842.541 380.422,840.374 369.5,848C 367.623,850.251 366.123,852.751 365,855.5C 364.832,873.005 364.332,890.338 363.5,907.5C 359.5,907.5 355.5,907.5 351.5,907.5C 354.962,906.518 358.629,906.185 362.5,906.5C 362.898,888.796 362.398,871.129 361,853.5C 359.803,851.117 358.97,851.45 358.5,854.5C 359.903,857.709 360.903,861.042 361.5,864.5C 361.296,874.775 360.796,885.108 360,895.5C 358.129,853.091 356.629,853.258 355.5,896C 356.905,897.269 358.571,897.769 360.5,897.5C 360.808,899.924 360.474,902.257 359.5,904.5C 358.548,902.955 358.215,901.288 358.5,899.5C 357.5,899.5 356.5,899.5 355.5,899.5C 355.785,901.288 355.452,902.955 354.5,904.5C 354.167,903.167 353.833,901.833 353.5,900.5C 353.905,885.605 354.905,870.771 356.5,856C 356.297,853.189 355.631,850.522 354.5,848C 355.428,847.612 356.095,846.945 356.5,846C 355.542,842.837 355.375,839.67 356,836.5C 353.82,837.346 352.32,838.846 351.5,841C 352.223,845.724 353.223,850.39 354.5,855C 353.922,856.811 353.422,858.645 353,860.5C 352.667,872.167 352.333,883.833 352,895.5C 350.301,896.406 348.467,896.739 346.5,896.5C 346.167,874.823 346.5,853.156 347.5,831.5C 349.166,916.823 350.166,916.823 350.5,831.5C 352.638,831.703 354.305,832.703 355.5,834.5C 356.705,832.862 358.038,832.529 359.5,833.5C 360.386,832.675 360.719,831.675 360.5,830.5C 355.167,830.5 349.833,830.5 344.5,830.5C 344.5,855.833 344.5,881.167 344.5,906.5C 346.415,906.216 348.081,906.549 349.5,907.5C 347.5,907.5 345.5,907.5 343.5,907.5C 343.5,881.5 343.5,855.5 343.5,829.5C 349.833,829.5 356.167,829.5 362.5,829.5C 362.335,833.182 362.501,836.848 363,840.5C 375.476,826.252 389.976,823.752 406.5,833C 411.717,837.266 414.383,842.766 414.5,849.5 Z"/></g>
<g><path style="opacity:1" fill="#f9fcfc" d="M 741.5,886.5 C 737.721,877.552 736.555,868.219 738,858.5C 739.157,854.178 741.324,850.511 744.5,847.5C 759.377,840.867 768.544,845.534 772,861.5C 773.663,871.181 771.996,880.181 767,888.5C 757.859,895.65 749.359,894.984 741.5,886.5 Z"/></g>
<g><path style="opacity:1" fill="#0a6ec5" d="M 1807.5,847.5 C 1807.33,863.503 1807.5,879.503 1808,895.5C 1808.28,896.416 1808.78,897.082 1809.5,897.5C 1810.5,900.833 1811.5,904.167 1812.5,907.5C 1805.41,907.795 1798.41,907.462 1791.5,906.5C 1791.5,904.158 1790.66,902.158 1789,900.5C 1779.42,909.095 1768.25,911.929 1755.5,909C 1740.66,902.16 1736.16,890.993 1742,875.5C 1746.09,869.755 1751.59,865.922 1758.5,864C 1768.3,862.258 1777.96,860.091 1787.5,857.5C 1789.28,850.744 1786.94,846.244 1780.5,844C 1771.01,841.084 1764.34,844.084 1760.5,853C 1754.39,853.149 1748.39,852.315 1742.5,850.5C 1743.01,843.34 1746.34,837.507 1752.5,833C 1765.75,826.898 1779.41,825.898 1793.5,830C 1802.49,832.476 1807.15,838.31 1807.5,847.5 Z"/></g>
<g><path style="opacity:1" fill="#0a6ec5" d="M 739.5,900.5 C 739.158,899.662 738.492,899.328 737.5,899.5C 737.953,898.542 738.619,897.708 739.5,897C 738.5,896.667 737.5,896.333 736.5,896C 738.78,895.767 740.78,894.934 742.5,893.5C 739.672,891.685 737.672,889.185 736.5,886C 736.833,885.5 737.167,885 737.5,884.5C 738.148,886.149 739.148,887.482 740.5,888.5C 741.298,888.043 741.631,887.376 741.5,886.5C 749.359,894.984 757.859,895.65 767,888.5C 771.996,880.181 773.663,871.181 772,861.5C 768.544,845.534 759.377,840.867 744.5,847.5C 744.5,846.5 744.5,845.5 744.5,844.5C 745.978,844.762 747.311,844.429 748.5,843.5C 746.208,842.21 744.208,840.543 742.5,838.5C 742.833,837.5 743.5,836.833 744.5,836.5C 745.982,838.483 747.649,840.316 749.5,842C 751.833,842.667 754.167,842.667 756.5,842C 759.28,839.207 762.114,839.373 765,842.5C 766.509,841.91 768.009,841.244 769.5,840.5C 773.234,839.272 773.401,837.605 770,835.5C 769.128,837.613 767.628,838.946 765.5,839.5C 762.218,839.022 759.384,837.689 757,835.5C 755.274,835.946 753.774,836.779 752.5,838C 757.843,839.942 757.51,840.775 751.5,840.5C 751.719,839.325 751.386,838.325 750.5,837.5C 748.105,838.523 747.105,837.523 747.5,834.5C 745.833,834.5 744.167,834.5 742.5,834.5C 758.533,823.825 773.033,825.825 786,840.5C 793.119,852.549 795.453,865.549 793,879.5C 787.265,904.446 772.099,913.612 747.5,907C 744.669,904.999 742.003,902.833 739.5,900.5 Z"/></g>
<g><path style="opacity:1" fill="#fafdfc" d="M 1110.5,844.5 C 1122.9,843.272 1130.73,848.606 1134,860.5C 1134.94,867.987 1134.27,875.32 1132,882.5C 1125.93,892.39 1117.43,895.224 1106.5,891C 1096.72,881.73 1093.89,870.563 1098,857.5C 1100.35,851.315 1104.52,846.982 1110.5,844.5 Z"/></g>
<g><path style="opacity:1" fill="#086ec5" d="M 1676.5,899.5 C 1675.49,901.013 1675.16,903.347 1675.5,906.5C 1674.6,907.209 1674.26,908.209 1674.5,909.5C 1672.7,915.084 1671.87,921.084 1672,927.5C 1672.02,921.493 1671.19,915.66 1669.5,910C 1670.17,905 1670.83,900 1671.5,895C 1671.17,894.5 1670.83,894 1670.5,893.5C 1669.48,894.853 1668.14,895.52 1666.5,895.5C 1666.33,892.043 1665.33,891.71 1663.5,894.5C 1664.59,896.62 1666.26,898.12 1668.5,899C 1667.21,901.466 1667.21,903.966 1668.5,906.5C 1667.31,907.429 1665.98,907.762 1664.5,907.5C 1664.5,915.833 1664.5,924.167 1664.5,932.5C 1666.86,932.663 1669.19,932.497 1671.5,932C 1670.1,930.731 1668.43,930.231 1666.5,930.5C 1666.17,924.132 1666.5,917.798 1667.5,911.5C 1668.5,917.128 1668.83,922.794 1668.5,928.5C 1670.17,928.5 1671.83,928.5 1673.5,928.5C 1673.17,930.5 1672.83,932.5 1672.5,934.5C 1667.91,935.019 1663.24,935.019 1658.5,934.5C 1658.17,900.16 1658.5,865.827 1659.5,831.5C 1661.17,959.493 1662.17,959.493 1662.5,831.5C 1666.04,831.813 1669.38,831.479 1672.5,830.5C 1673.17,833.167 1673.83,835.833 1674.5,838.5C 1674.37,839.239 1674.54,839.906 1675,840.5C 1686.62,826.256 1700.45,823.756 1716.5,833C 1730.48,845.366 1735.31,860.866 1731,879.5C 1726.75,902.092 1713.25,911.925 1690.5,909C 1685.29,906.565 1680.62,903.399 1676.5,899.5 Z"/></g>
<g><path style="opacity:1" fill="#f9fcfc" d="M 1687.5,844.5 C 1699.64,842.649 1707.14,847.649 1710,859.5C 1711.48,869.271 1710.14,878.605 1706,887.5C 1699.18,894.432 1691.68,895.266 1683.5,890C 1674.32,877.598 1673.15,864.431 1680,850.5C 1682.48,848.361 1684.98,846.361 1687.5,844.5 Z"/></g>
<g><path style="opacity:1" fill="#61acea" d="M 414.5,849.5 C 415.497,868.993 415.83,888.66 415.5,908.5C 408.313,908.825 401.313,908.491 394.5,907.5C 401.167,907.5 407.833,907.5 414.5,907.5C 414.5,888.167 414.5,868.833 414.5,849.5 Z"/></g>
<g><path style="opacity:1" fill="#8ac1ed" d="M 696.5,852.5 C 697.497,870.993 697.83,889.659 697.5,908.5C 690.167,908.5 682.833,908.5 675.5,908.5C 675.5,890.833 675.5,873.167 675.5,855.5C 676.497,872.659 676.83,889.992 676.5,907.5C 683.167,907.5 689.833,907.5 696.5,907.5C 696.5,889.167 696.5,870.833 696.5,852.5 Z"/></g>
<g><path style="opacity:1" fill="#096ec5" d="M 969.5,863.5 C 969.5,867.167 969.5,870.833 969.5,874.5C 952.325,874.17 935.325,874.503 918.5,875.5C 919.32,890.56 926.986,896.393 941.5,893C 944.98,890.703 946.98,887.536 947.5,883.5C 954.479,884.592 961.479,885.592 968.5,886.5C 965.324,898.509 957.657,906.009 945.5,909C 914.441,913.602 898.108,900.269 896.5,869C 896.566,844.298 908.733,830.464 933,827.5C 955.602,828.936 967.769,840.936 969.5,863.5 Z"/></g>
<g><path style="opacity:1" fill="#f3f9fc" d="M 929.5,843.5 C 942.634,842.967 949.301,849.3 949.5,862.5C 939.167,862.5 928.833,862.5 918.5,862.5C 918.309,853.877 921.975,847.543 929.5,843.5 Z"/></g>
<g><path style="opacity:1" fill="#1869ad" d="M 1057.5,845.5 C 1058.5,865.993 1058.83,886.66 1058.5,907.5C 1051.65,907.824 1044.98,907.491 1038.5,906.5C 1044.83,906.5 1051.17,906.5 1057.5,906.5C 1057.5,886.167 1057.5,865.833 1057.5,845.5 Z"/></g>
<g><path style="opacity:1" fill="#a6c1dc" d="M 1566.5,852.5 C 1567.5,870.659 1567.83,888.992 1567.5,907.5C 1574.17,907.5 1580.83,907.5 1587.5,907.5C 1580.69,908.491 1573.69,908.825 1566.5,908.5C 1566.5,889.833 1566.5,871.167 1566.5,852.5 Z"/></g>
<g><path style="opacity:1" fill="#eafdfe" d="M 1610.5,846.5 C 1612.41,847.975 1613.58,849.975 1614,852.5C 1614.5,870.83 1614.67,889.164 1614.5,907.5C 1614.5,907.833 1614.5,908.167 1614.5,908.5C 1613.88,908.389 1613.38,908.056 1613,907.5C 1612.83,888.824 1612.33,870.158 1611.5,851.5C 1610.83,853.167 1610.17,854.833 1609.5,856.5C 1609.17,855.667 1608.83,854.833 1608.5,854C 1609.32,851.528 1609.99,849.028 1610.5,846.5 Z"/></g>
<g><path style="opacity:1" fill="#5d9dd1" d="M 1634.5,847.5 C 1635.5,867.66 1635.83,887.993 1635.5,908.5C 1628.5,908.5 1621.5,908.5 1614.5,908.5C 1614.5,908.167 1614.5,907.833 1614.5,907.5C 1621.17,907.5 1627.83,907.5 1634.5,907.5C 1634.5,887.5 1634.5,867.5 1634.5,847.5 Z"/></g>
<g><path style="opacity:1" fill="#066dc4" d="M 1900.5,853.5 C 1900.5,871.5 1900.5,889.5 1900.5,907.5C 1893.83,907.5 1887.17,907.5 1880.5,907.5C 1880.83,891.325 1880.5,875.325 1879.5,859.5C 1879.47,847.295 1873.47,842.129 1861.5,844C 1853.91,847.352 1849.91,853.185 1849.5,861.5C 1849.17,861.5 1848.83,861.5 1848.5,861.5C 1848.19,860.262 1847.69,860.262 1847,861.5C 1846.5,875.829 1846.33,890.163 1846.5,904.5C 1844.4,904.799 1842.4,904.466 1840.5,903.5C 1841.69,902.571 1843.02,902.238 1844.5,902.5C 1844.5,900.833 1844.5,899.167 1844.5,897.5C 1841.75,897.274 1839.08,897.607 1836.5,898.5C 1835.57,899.689 1835.24,901.022 1835.5,902.5C 1836.98,902.238 1838.31,902.571 1839.5,903.5C 1837.26,904.474 1834.92,904.808 1832.5,904.5C 1832.17,880.158 1832.5,855.824 1833.5,831.5C 1834.17,852.833 1834.83,874.167 1835.5,895.5C 1836.83,810.167 1838.17,810.167 1839.5,895.5C 1840.72,881.501 1840.72,867.501 1839.5,853.5C 1839.64,850.957 1840.31,848.623 1841.5,846.5C 1839.67,845.032 1839.33,843.365 1840.5,841.5C 1842.4,842.947 1844.07,844.614 1845.5,846.5C 1846.61,847.59 1847.61,847.59 1848.5,846.5C 1847.5,844.833 1846.17,843.5 1844.5,842.5C 1846.29,839.444 1846.96,836.111 1846.5,832.5C 1846.83,832.5 1847.17,832.5 1847.5,832.5C 1847.19,835.247 1847.52,837.914 1848.5,840.5C 1849.11,840.376 1849.44,840.043 1849.5,839.5C 1859.59,828.061 1871.92,824.894 1886.5,830C 1896.38,834.581 1901.05,842.414 1900.5,853.5 Z"/></g>
<g><path style="opacity:1" fill="#8abae3" d="M 502.5,862.5 C 511.44,864.472 520.773,865.139 530.5,864.5C 521.014,865.494 511.348,865.827 501.5,865.5C 501.263,864.209 501.596,863.209 502.5,862.5 Z"/></g>
<g><path style="opacity:1" fill="#2d74ba" d="M 581.5,829.5 C 587.833,829.5 594.167,829.5 600.5,829.5C 600.5,832.833 600.5,836.167 600.5,839.5C 599.795,836.772 599.128,833.939 598.5,831C 593.177,830.501 587.844,830.334 582.5,830.5C 582.5,855.833 582.5,881.167 582.5,906.5C 588.5,906.5 594.5,906.5 600.5,906.5C 600.79,889.799 600.457,873.132 599.5,856.5C 600.5,856.5 601.5,856.5 602.5,856.5C 602.83,873.675 602.497,890.675 601.5,907.5C 594.833,907.5 588.167,907.5 581.5,907.5C 581.5,881.5 581.5,855.5 581.5,829.5 Z"/></g>
<g><path style="opacity:1" fill="#006ecb" d="M 351.5,907.5 C 350.833,907.5 350.167,907.5 349.5,907.5C 348.081,906.549 346.415,906.216 344.5,906.5C 344.5,881.167 344.5,855.833 344.5,830.5C 349.833,830.5 355.167,830.5 360.5,830.5C 360.719,831.675 360.386,832.675 359.5,833.5C 358.038,832.529 356.705,832.862 355.5,834.5C 354.305,832.703 352.638,831.703 350.5,831.5C 350.166,916.823 349.166,916.823 347.5,831.5C 346.5,853.156 346.167,874.823 346.5,896.5C 348.467,896.739 350.301,896.406 352,895.5C 352.333,883.833 352.667,872.167 353,860.5C 353.422,858.645 353.922,856.811 354.5,855C 353.223,850.39 352.223,845.724 351.5,841C 352.32,838.846 353.82,837.346 356,836.5C 355.375,839.67 355.542,842.837 356.5,846C 356.095,846.945 355.428,847.612 354.5,848C 355.631,850.522 356.297,853.189 356.5,856C 354.905,870.771 353.905,885.605 353.5,900.5C 353.833,901.833 354.167,903.167 354.5,904.5C 355.452,902.955 355.785,901.288 355.5,899.5C 356.5,899.5 357.5,899.5 358.5,899.5C 358.215,901.288 358.548,902.955 359.5,904.5C 360.474,902.257 360.808,899.924 360.5,897.5C 358.571,897.769 356.905,897.269 355.5,896C 356.629,853.258 358.129,853.091 360,895.5C 360.796,885.108 361.296,874.775 361.5,864.5C 360.903,861.042 359.903,857.709 358.5,854.5C 358.97,851.45 359.803,851.117 361,853.5C 362.398,871.129 362.898,888.796 362.5,906.5C 358.629,906.185 354.962,906.518 351.5,907.5 Z"/></g>
<g><path style="opacity:1" fill="#89bfe9" d="M 1900.5,853.5 C 1901.5,871.659 1901.83,889.992 1901.5,908.5C 1894.17,908.5 1886.83,908.5 1879.5,908.5C 1879.5,892.167 1879.5,875.833 1879.5,859.5C 1880.5,875.325 1880.83,891.325 1880.5,907.5C 1887.17,907.5 1893.83,907.5 1900.5,907.5C 1900.5,889.5 1900.5,871.5 1900.5,853.5 Z"/></g>
<g><path style="opacity:1" fill="#186cb4" d="M 879.5,843.5 C 880.268,844.263 880.768,845.263 881,846.5C 881.5,866.831 881.667,887.164 881.5,907.5C 874.833,907.5 868.167,907.5 861.5,907.5C 861.83,890.658 861.497,873.992 860.5,857.5C 860.5,855.5 860.5,853.5 860.5,851.5C 861.302,852.952 861.802,854.618 862,856.5C 862.5,873.163 862.667,889.83 862.5,906.5C 868.5,906.5 874.5,906.5 880.5,906.5C 880.788,885.473 880.454,864.473 879.5,843.5 Z"/></g>
<g><path style="opacity:1" fill="#5590c1" d="M 628.5,851.5 C 629.497,869.993 629.83,888.659 629.5,907.5C 636.167,907.5 642.833,907.5 649.5,907.5C 642.687,908.491 635.687,908.825 628.5,908.5C 628.5,889.5 628.5,870.5 628.5,851.5 Z"/></g>
<g><path style="opacity:1" fill="#77a9d2" d="M 860.5,857.5 C 861.497,873.992 861.83,890.658 861.5,907.5C 868.167,907.5 874.833,907.5 881.5,907.5C 874.687,908.491 867.687,908.825 860.5,908.5C 860.5,891.5 860.5,874.5 860.5,857.5 Z"/></g>
<g><path style="opacity:1" fill="#0a6ec5" d="M 1912.5,829.5 C 1919.86,829.169 1927.2,829.503 1934.5,830.5C 1940.56,848.515 1946.73,866.515 1953,884.5C 1958.59,866.401 1964.59,848.401 1971,830.5C 1978.11,829.188 1985.28,829.188 1992.5,830.5C 1981.02,860.773 1969.85,891.107 1959,921.5C 1955.77,930.401 1949.6,936.234 1940.5,939C 1933.5,939.667 1926.5,939.667 1919.5,939C 1917.36,933.656 1917.03,928.156 1918.5,922.5C 1931.07,925.721 1938.73,921.055 1941.5,908.5C 1931.63,882.232 1921.97,855.898 1912.5,829.5 Z"/></g>
<g><path style="opacity:1" fill="#f5fcfb" d="M 301.5,870.5 C 305.328,887.175 298.661,895.342 281.5,895C 273.987,890.717 272.654,885.051 277.5,878C 279.5,877 281.5,876 283.5,875C 289.756,874.023 295.756,872.523 301.5,870.5 Z"/></g>
<g><path style="opacity:1" fill="#f8fcfb" d="M 1785.5,871.5 C 1787.41,874.684 1788.08,878.351 1787.5,882.5C 1786.28,889.797 1781.95,893.963 1774.5,895C 1764.18,895.674 1759.68,890.84 1761,880.5C 1762.17,879.333 1763.33,878.167 1764.5,877C 1771.36,874.526 1778.36,872.693 1785.5,871.5 Z"/></g>
<g><path style="opacity:1" fill="#83c1f0" d="M 1785.5,871.5 C 1786.21,870.596 1787.21,870.263 1788.5,870.5C 1788.82,874.702 1788.48,878.702 1787.5,882.5C 1788.08,878.351 1787.41,874.684 1785.5,871.5 Z"/></g>
<g><path style="opacity:1" fill="#8ec3f0" d="M 969.5,863.5 C 970.483,867.298 970.817,871.298 970.5,875.5C 953.167,875.5 935.833,875.5 918.5,875.5C 935.325,874.503 952.325,874.17 969.5,874.5C 969.5,870.833 969.5,867.167 969.5,863.5 Z"/></g>
<g><path style="opacity:1" fill="#77b1e0" d="M 1037.5,856.5 C 1038.5,872.992 1038.83,889.658 1038.5,906.5C 1044.98,907.491 1051.65,907.824 1058.5,907.5C 1051.69,908.491 1044.69,908.825 1037.5,908.5C 1037.5,891.167 1037.5,873.833 1037.5,856.5 Z"/></g>
<g><path style="opacity:1" fill="#3976a8" d="M 1807.5,847.5 C 1808.24,864.015 1808.91,880.681 1809.5,897.5C 1808.78,897.082 1808.28,896.416 1808,895.5C 1807.5,879.503 1807.33,863.503 1807.5,847.5 Z"/></g>
<g><path style="opacity:1" fill="#0a6ec5" d="M 1457.5,827.5 C 1490.98,827.465 1506.48,844.131 1504,877.5C 1496.65,902.775 1479.82,913.275 1453.5,909C 1439.07,904.904 1429.57,895.737 1425,881.5C 1419.82,853.493 1430.65,835.493 1457.5,827.5 Z"/></g>
<g><path style="opacity:1" fill="#fafdfd" d="M 1459.5,844.5 C 1478.2,845.718 1486.03,855.718 1483,874.5C 1479.93,890.118 1470.77,895.618 1455.5,891C 1450.22,887.618 1447.05,882.784 1446,876.5C 1442.4,862.082 1446.9,851.416 1459.5,844.5 Z"/></g>
<g><path style="opacity:1" fill="#006ecc" d="M 1672.5,830.5 C 1669.38,831.479 1666.04,831.813 1662.5,831.5C 1662.17,959.493 1661.17,959.493 1659.5,831.5C 1658.5,865.827 1658.17,900.16 1658.5,934.5C 1663.24,935.019 1667.91,935.019 1672.5,934.5C 1672.83,932.5 1673.17,930.5 1673.5,928.5C 1671.83,928.5 1670.17,928.5 1668.5,928.5C 1668.83,922.794 1668.5,917.128 1667.5,911.5C 1666.5,917.798 1666.17,924.132 1666.5,930.5C 1668.43,930.231 1670.1,930.731 1671.5,932C 1669.19,932.497 1666.86,932.663 1664.5,932.5C 1664.5,924.167 1664.5,915.833 1664.5,907.5C 1665.98,907.762 1667.31,907.429 1668.5,906.5C 1667.21,903.966 1667.21,901.466 1668.5,899C 1666.26,898.12 1664.59,896.62 1663.5,894.5C 1665.33,891.71 1666.33,892.043 1666.5,895.5C 1668.14,895.52 1669.48,894.853 1670.5,893.5C 1670.83,894 1671.17,894.5 1671.5,895C 1670.83,900 1670.17,905 1669.5,910C 1671.19,915.66 1672.02,921.493 1672,927.5C 1671.87,921.084 1672.7,915.084 1674.5,909.5C 1674.5,918.5 1674.5,927.5 1674.5,936.5C 1668.5,936.5 1662.5,936.5 1656.5,936.5C 1656.5,901.167 1656.5,865.833 1656.5,830.5C 1661.83,830.5 1667.17,830.5 1672.5,830.5 Z"/></g>
<g><path style="opacity:1" fill="#82b2d9" d="M 326.5,906.5 C 327.043,906.56 327.376,906.893 327.5,907.5C 320.344,908.819 313.344,908.819 306.5,907.5C 313.354,907.824 320.021,907.491 326.5,906.5 Z"/></g>
<g><path style="opacity:1" fill="#9cc5e8" d="M 343.5,829.5 C 343.5,855.5 343.5,881.5 343.5,907.5C 345.5,907.5 347.5,907.5 349.5,907.5C 350.167,907.5 350.833,907.5 351.5,907.5C 355.5,907.5 359.5,907.5 363.5,907.5C 356.687,908.491 349.687,908.825 342.5,908.5C 342.169,881.995 342.502,855.661 343.5,829.5 Z"/></g>
<g><path style="opacity:1" fill="#7fb1d8" d="M 463.5,906.5 C 470.648,907.492 477.981,907.825 485.5,907.5C 477.99,908.82 470.323,908.82 462.5,907.5C 462.624,906.893 462.957,906.56 463.5,906.5 Z"/></g>
<g><path style="opacity:1" fill="#87b3d9" d="M 570.5,906.5 C 571.043,906.56 571.376,906.893 571.5,907.5C 563.343,908.82 555.343,908.82 547.5,907.5C 555.352,907.825 563.018,907.492 570.5,906.5 Z"/></g>
<g><path style="opacity:1" fill="#9bc6e9" d="M 581.5,829.5 C 581.5,855.5 581.5,881.5 581.5,907.5C 588.167,907.5 594.833,907.5 601.5,907.5C 594.687,908.491 587.687,908.825 580.5,908.5C 580.169,881.995 580.502,855.661 581.5,829.5 Z"/></g>
<g><path style="opacity:1" fill="#80b2db" d="M 1791.5,906.5 C 1798.41,907.462 1805.41,907.795 1812.5,907.5C 1809.18,908.165 1805.68,908.499 1802,908.5C 1798.1,908.488 1794.6,907.821 1791.5,906.5 Z"/></g>
<g><path style="opacity:1" fill="#d0eafd" d="M 737.5,899.5 C 738.492,899.328 739.158,899.662 739.5,900.5C 738.833,912.833 738.167,925.167 737.5,937.5C 737.5,924.833 737.5,912.167 737.5,899.5 Z"/></g>
<g><path style="opacity:1" fill="#7cb0db" d="M 1676.5,899.5 C 1676.5,912.5 1676.5,925.5 1676.5,938.5C 1669.31,938.825 1662.31,938.491 1655.5,937.5C 1662.17,937.5 1668.83,937.5 1675.5,937.5C 1675.5,927.167 1675.5,916.833 1675.5,906.5C 1675.16,903.347 1675.49,901.013 1676.5,899.5 Z"/></g>
</svg>
